<svg width="32" height="32" viewBox="0 0 32 32" fill="none" xmlns="http://www.w3.org/2000/svg">
<path d="M18.7719 2C18.9838 1.99975 19.1903 2.06681 19.3616 2.19149C19.5329 2.31618 19.6602 2.49205 19.7251 2.69375L20.8251 6.1125C21.2842 6.33628 21.7269 6.59212 22.1501 6.87813L25.6626 6.12188C25.8696 6.07801 26.0852 6.10096 26.2784 6.18745C26.4716 6.27393 26.6324 6.41947 26.7376 6.60313L29.5094 11.4C29.6154 11.5834 29.6604 11.7957 29.6379 12.0063C29.6154 12.2169 29.5267 12.415 29.3844 12.5719L26.9751 15.2313C27.0101 15.7411 27.0101 16.2527 26.9751 16.7625L29.3813 19.4281C29.5241 19.5847 29.6134 19.7826 29.6364 19.9932C29.6594 20.2038 29.615 20.4163 29.5094 20.6L26.7376 25.4C26.6319 25.5831 26.471 25.728 26.2778 25.8139C26.0847 25.8998 25.8693 25.9223 25.6626 25.8781L22.1501 25.1219C21.7292 25.4052 21.2876 25.6604 20.8251 25.8875L19.7251 29.3062C19.6602 29.5079 19.5329 29.6838 19.3616 29.8085C19.1903 29.9332 18.9838 30.0002 18.7719 30H13.2282C13.0163 30.0002 12.8098 29.9332 12.6385 29.8085C12.4672 29.6838 12.3399 29.5079 12.2751 29.3062L11.1782 25.8906C10.717 25.6647 10.2721 25.4068 9.84693 25.1187L6.33756 25.8781C6.1305 25.922 5.91487 25.899 5.72169 25.8126C5.52851 25.7261 5.36776 25.5805 5.26256 25.3969L2.49068 20.6C2.38473 20.4166 2.33974 20.2043 2.36221 19.9937C2.38467 19.7831 2.47343 19.585 2.61568 19.4281L5.02506 16.7625C4.99027 16.2548 4.99027 15.7452 5.02506 15.2375L2.61881 12.5719C2.47606 12.4153 2.38673 12.2174 2.3637 12.0068C2.34068 11.7962 2.38514 11.5837 2.49068 11.4L5.26256 6.6C5.36821 6.41692 5.52916 6.27202 5.7223 6.18612C5.91544 6.10021 6.13084 6.07772 6.33756 6.12188L9.84693 6.88125C10.2723 6.59345 10.7171 6.33554 11.1782 6.10938L12.2782 2.69375C12.3427 2.49307 12.4691 2.31792 12.6391 2.19333C12.8092 2.06874 13.0143 2.00107 13.2251 2H18.7719ZM18.0407 4H13.9594L12.8251 7.53125L12.0594 7.90625C11.6819 8.09146 11.3175 8.30237 10.9688 8.5375L10.2626 9.01563L6.63131 8.23438L4.59068 11.7656L7.08131 14.525L7.01881 15.3719C6.99005 15.7901 6.99005 16.2099 7.01881 16.6281L7.08131 17.475L4.58756 20.2313L6.62506 23.7687L10.2563 22.9875L10.9657 23.4625C11.3134 23.6964 11.6768 23.9063 12.0532 24.0906L12.8188 24.4656L13.9594 28H18.0438L19.1876 24.4625L19.9501 24.0906C20.3267 23.9078 20.69 23.699 21.0376 23.4656L21.7438 22.9875L25.3782 23.7687L27.4157 20.2313L24.9251 17.475L24.9876 16.6281C25.0165 16.2088 25.0165 15.788 24.9876 15.3688L24.9251 14.5219L27.4188 11.7688L25.3751 8.23125L21.7407 9.0125L21.0344 8.5375C20.687 8.30306 20.3236 8.09317 19.9469 7.90938L19.1876 7.53125L18.0407 4ZM16.0001 10C17.5914 10 19.1175 10.6321 20.2427 11.7574C21.3679 12.8826 22.0001 14.4087 22.0001 16C22.0001 17.5913 21.3679 19.1174 20.2427 20.2426C19.1175 21.3679 17.5914 22 16.0001 22C14.4088 22 12.8826 21.3679 11.7574 20.2426C10.6322 19.1174 10.0001 17.5913 10.0001 16C10.0001 14.4087 10.6322 12.8826 11.7574 11.7574C12.8826 10.6321 14.4088 10 16.0001 10ZM16.0001 12C14.9392 12 13.9218 12.4214 13.1716 13.1716C12.4215 13.9217 12.0001 14.9391 12.0001 16C12.0001 17.0609 12.4215 18.0783 13.1716 18.8284C13.9218 19.5786 14.9392 20 16.0001 20C17.0609 20 18.0783 19.5786 18.8285 18.8284C19.5786 18.0783 20.0001 17.0609 20.0001 16C20.0001 14.9391 19.5786 13.9217 18.8285 13.1716C18.0783 12.4214 17.0609 12 16.0001 12Z" fill="#3640CA"/>
</svg>
