<svg width="27" height="27" viewBox="0 0 27 27" fill="none" xmlns="http://www.w3.org/2000/svg">
<path d="M23.625 6.75H19.125V4.5C19.125 3.2625 18.1125 2.25 16.875 2.25H10.125C8.8875 2.25 7.875 3.2625 7.875 4.5V8.3025L2.37375 11.0588C1.99889 11.245 1.68342 11.5322 1.46281 11.8879C1.24221 12.2437 1.12522 12.6539 1.125 13.0725V23.625C1.125 24.2437 1.63125 24.75 2.25 24.75H24.75C25.3687 24.75 25.875 24.2437 25.875 23.625V9C25.875 7.7625 24.8625 6.75 23.625 6.75ZM23.625 22.5H7.875V13.4887L5.625 14.625V22.5H3.375V13.0725L9.50625 10.0125C9.69178 9.91901 9.8478 9.77598 9.95701 9.59925C10.0662 9.42252 10.1244 9.219 10.125 9.01125V4.51125H16.875V7.88625C16.875 8.505 17.3813 9.01125 18 9.01125H23.625V22.5112V22.5Z" fill="#156399"/>
<path d="M12.375 11.25H14.625V13.5H12.375V11.25ZM12.375 15.75H14.625V18H12.375V15.75ZM12.375 6.75H14.625V9H12.375V6.75ZM19.125 15.75H21.375V18H19.125V15.75ZM19.125 11.25H21.375V13.5H19.125V11.25Z" fill="#156399"/>
</svg>
