<svg width="26" height="29" viewBox="0 0 26 29" fill="none" xmlns="http://www.w3.org/2000/svg">
<path d="M10.9479 7.00134V9.64001M6.33325 11.668H9.04925M16.9506 11.668H19.6666M16.9506 15.6333H19.6666M6.33325 15.6333H9.04925M10.9479 17.6933V20.3333M14.9519 17.6933V20.3333M14.9386 7.00134V9.64001M10.3719 17.6253H15.6279C15.8023 17.6246 15.9749 17.5896 16.1357 17.5222C16.2966 17.4548 16.4426 17.3564 16.5654 17.2326C16.6882 17.1088 16.7855 16.962 16.8515 16.8006C16.9176 16.6392 16.9513 16.4664 16.9506 16.292V10.9733C16.9506 10.2373 16.3586 9.64001 15.6279 9.64001H10.3719C10.1975 9.64071 10.025 9.67575 9.86412 9.74314C9.70327 9.81052 9.55726 9.90893 9.43444 10.0327C9.31162 10.1566 9.21439 10.3033 9.1483 10.4647C9.08221 10.6261 9.04855 10.7989 9.04925 10.9733V16.292C9.04925 17.028 9.64125 17.6253 10.3719 17.6253Z" stroke="#3640CA" stroke-width="2" stroke-linecap="round"/>
<path d="M25 13.244V9.37333C25 7.18667 25 6.09333 24.4613 5.38C23.9227 4.66667 22.704 4.32133 20.268 3.628C18.7987 3.20601 17.3602 2.68344 15.9627 2.064C14.364 1.35467 13.5653 1 13 1C12.4347 1 11.636 1.35467 10.0373 2.064C8.864 2.584 7.39733 3.15467 5.732 3.628C3.296 4.32133 2.07867 4.668 1.53867 5.38C1 6.09333 1 7.18667 1 9.37333V13.244C1 20.744 7.75067 25.244 11.1253 27.0253C11.9347 27.452 12.3387 27.6667 13 27.6667C13.6613 27.6667 14.0653 27.4533 14.8747 27.0267C18.2493 25.2427 25 20.744 25 13.244Z" stroke="#3640CA" stroke-width="2" stroke-linecap="round"/>
</svg>
